<svg width="40" height="40" viewBox="0 0 40 40" fill="none" xmlns="http://www.w3.org/2000/svg">
<g clip-path="url(#clip0_57454_1741)">
<path d="M26 16.5H25V14.5C25 11.74 22.76 9.5 20 9.5C17.24 9.5 15 11.74 15 14.5V16.5H14C12.9 16.5 12 17.4 12 18.5V28.5C12 29.6 12.9 30.5 14 30.5H26C27.1 30.5 28 29.6 28 28.5V18.5C28 17.4 27.1 16.5 26 16.5ZM17 14.5C17 12.84 18.34 11.5 20 11.5C21.66 11.5 23 12.84 23 14.5V16.5H17V14.5ZM26 28.5H14V18.5H26V28.5ZM20 25.5C21.1 25.5 22 24.6 22 23.5C22 22.4 21.1 21.5 20 21.5C18.9 21.5 18 22.4 18 23.5C18 24.6 18.9 25.5 20 25.5Z" fill="#484A47"/>
</g>
<defs>
<clipPath id="clip0_57454_1741">
<rect width="40" height="40" rx="20" fill="white"/>
</clipPath>
</defs>
</svg>
