<svg width="48" height="48" viewBox="0 0 48 48" fill="none" xmlns="http://www.w3.org/2000/svg">
<g clip-path="url(#clip0_57401_3054)">
<path d="M24 14C18.48 14 14 18.48 14 24C14 29.52 18.48 34 24 34C29.52 34 34 29.52 34 24C34 18.48 29.52 14 24 14ZM19.35 30.5C20.66 29.56 22.26 29 24 29C25.74 29 27.34 29.56 28.65 30.5C27.34 31.44 25.74 32 24 32C22.26 32 20.66 31.44 19.35 30.5ZM30.14 29.12C28.45 27.8 26.32 27 24 27C21.68 27 19.55 27.8 17.86 29.12C16.7 27.73 16 25.95 16 24C16 19.58 19.58 16 24 16C28.42 16 32 19.58 32 24C32 25.95 31.3 27.73 30.14 29.12Z" fill="#101110"/>
<path d="M24 18C22.07 18 20.5 19.57 20.5 21.5C20.5 23.43 22.07 25 24 25C25.93 25 27.5 23.43 27.5 21.5C27.5 19.57 25.93 18 24 18ZM24 23C23.17 23 22.5 22.33 22.5 21.5C22.5 20.67 23.17 20 24 20C24.83 20 25.5 20.67 25.5 21.5C25.5 22.33 24.83 23 24 23Z" fill="#101110"/>
</g>
<defs>
<clipPath id="clip0_57401_3054">
<rect x="4" y="4" width="40" height="40" rx="20" fill="white"/>
</clipPath>
</defs>
</svg>
