<svg width="40" height="40" viewBox="0 0 40 40" fill="none" xmlns="http://www.w3.org/2000/svg">
<path d="M20.7871 29.5024L10.9971 19.7124V21.7124C10.9971 22.2424 11.2071 22.7524 11.5871 23.1224L19.3771 30.9124C20.1571 31.6924 21.4271 31.6924 22.2071 30.9124L28.4171 24.7024C29.1971 23.9224 29.1971 22.6524 28.4171 21.8724L20.7871 29.5024Z" fill="#44483D"/>
<path d="M19.3771 25.9124C19.7671 26.3024 20.2771 26.5024 20.7871 26.5024C21.2971 26.5024 21.8071 26.3024 22.1971 25.9124L28.4071 19.7024C29.1871 18.9224 29.1871 17.6524 28.4071 16.8724L20.6171 9.08244C20.2471 8.71244 19.7371 8.50244 19.2071 8.50244H12.9971C11.8971 8.50244 10.9971 9.40244 10.9971 10.5024V16.7124C10.9971 17.2424 11.2071 17.7524 11.5871 18.1224L19.3771 25.9124ZM12.9971 10.5024H19.2071L26.9971 18.2924L20.7871 24.5024L12.9971 16.7124V10.5024Z" fill="#44483D"/>
<path d="M15.2471 14.0024C15.9374 14.0024 16.4971 13.4428 16.4971 12.7524C16.4971 12.0621 15.9374 11.5024 15.2471 11.5024C14.5567 11.5024 13.9971 12.0621 13.9971 12.7524C13.9971 13.4428 14.5567 14.0024 15.2471 14.0024Z" fill="#44483D"/>
</svg>
