<svg width="36" height="24" viewBox="0 0 36 24" fill="none" xmlns="http://www.w3.org/2000/svg">
<rect x="0.833313" y="0.5" width="34" height="23" rx="3.5" fill="white" stroke="#D9D9D9"/>
<path fill-rule="evenodd" clip-rule="evenodd" d="M8.67951 8.93296C9.14955 8.97261 9.6196 8.69506 9.91337 8.34316C10.2023 7.98135 10.3932 7.49563 10.3442 7C9.92806 7.01983 9.41395 7.27755 9.12018 7.63936C8.85088 7.95161 8.62076 8.45715 8.67951 8.93296ZM14.2711 15.3167V7.58981H17.1354C18.614 7.58981 19.6472 8.62072 19.6472 10.1274C19.6472 11.6342 18.5945 12.675 17.0962 12.675H15.456V15.3167H14.2711ZM10.3393 9.02714C9.92522 9.00301 9.54737 9.1532 9.24217 9.27451C9.04577 9.35257 8.87946 9.41868 8.75293 9.41868C8.61093 9.41868 8.43775 9.34904 8.24331 9.27085C7.98852 9.16839 7.69723 9.05125 7.39177 9.05687C6.6916 9.06679 6.0404 9.46825 5.68297 10.1076C4.94853 11.3863 5.49202 13.2796 6.20198 14.3205C6.54961 14.8359 6.96579 15.4009 7.51417 15.3811C7.75543 15.3719 7.92897 15.2974 8.10857 15.2202C8.31535 15.1314 8.53015 15.0391 8.86554 15.0391C9.18931 15.0391 9.39471 15.129 9.59189 15.2152C9.77938 15.2973 9.95942 15.376 10.2267 15.3712C10.7947 15.3613 11.1521 14.8557 11.4997 14.3403C11.8749 13.7871 12.0397 13.2471 12.0648 13.1652L12.0677 13.1557C12.0671 13.1551 12.0625 13.153 12.0543 13.1492C11.9289 13.0911 10.9703 12.6469 10.9611 11.4557C10.9519 10.4559 11.7214 9.94937 11.8426 9.86963L11.8426 9.86962C11.8499 9.86477 11.8549 9.8615 11.8572 9.85979C11.3675 9.12626 10.6037 9.04696 10.3393 9.02714ZM21.8113 15.3761C22.5556 15.3761 23.2459 14.9945 23.5593 14.3898H23.5838V15.3166H24.6806V11.4706C24.6806 10.3554 23.7992 9.63672 22.443 9.63672C21.1846 9.63672 20.2543 10.3653 20.2201 11.3665H21.2874C21.3756 10.8907 21.8113 10.5784 22.4087 10.5784C23.1333 10.5784 23.5397 10.9204 23.5397 11.5499V11.9761L22.0611 12.0653C20.6852 12.1496 19.941 12.7195 19.941 13.7108C19.941 14.712 20.7097 15.3761 21.8113 15.3761ZM22.1295 14.4592C21.4979 14.4592 21.0964 14.1519 21.0964 13.6811C21.0964 13.1954 21.4832 12.9129 22.2226 12.8683L23.5397 12.784V13.2202C23.5397 13.9438 22.9325 14.4592 22.1295 14.4592ZM28.3184 15.619C27.8435 16.9721 27.3 17.4181 26.1445 17.4181C26.0564 17.4181 25.7626 17.4082 25.694 17.3884V16.4616C25.7675 16.4715 25.9486 16.4814 26.0417 16.4814C26.5656 16.4814 26.8594 16.2584 27.0405 15.6785L27.1482 15.3365L25.1408 9.71108H26.3795L27.775 14.2758H27.7994L29.1949 9.71108H30.3993L28.3184 15.619ZM15.4558 8.60087H16.8219C17.8501 8.60087 18.4377 9.15598 18.4377 10.1324C18.4377 11.1088 17.8501 11.6688 16.817 11.6688H15.4558V8.60087Z" fill="black"/>
</svg>
