<svg width="36" height="24" viewBox="0 0 36 24" fill="none" xmlns="http://www.w3.org/2000/svg">
<rect x="0.833313" y="0.5" width="34" height="23" rx="3.5" fill="white" stroke="#D9D9D9"/>
<path fill-rule="evenodd" clip-rule="evenodd" d="M16.8634 15.758V12.737H18.4226C19.0615 12.737 19.6008 12.5229 20.0404 12.1007L20.1459 11.9937C20.949 11.1195 20.8962 9.75769 20.0404 8.94893C19.6125 8.52076 19.0264 8.28884 18.4226 8.30073H15.9197V15.758H16.8634ZM16.8636 11.8212V9.21654H18.4464C18.7865 9.21654 19.1089 9.34737 19.3493 9.58524C19.8593 10.0848 19.871 10.9173 19.3786 11.4347C19.1382 11.6904 18.7982 11.8331 18.4464 11.8212H16.8636ZM24.548 11.0541C24.1435 10.6794 23.5926 10.4891 22.895 10.4891C21.9982 10.4891 21.3241 10.8222 20.8787 11.4823L21.711 12.0115C22.0158 11.5596 22.432 11.3336 22.9595 11.3336C23.2936 11.3336 23.616 11.4585 23.868 11.6844C24.1142 11.8985 24.2549 12.2078 24.2549 12.5348V12.7549C23.8915 12.5527 23.4343 12.4456 22.8716 12.4456C22.2151 12.4456 21.6875 12.6002 21.2948 12.9154C20.9021 13.2306 20.7028 13.6469 20.7028 14.1761C20.6911 14.6578 20.8962 15.1157 21.2597 15.425C21.6289 15.758 22.0979 15.9245 22.6488 15.9245C23.2995 15.9245 23.8153 15.6331 24.208 15.0503H24.249V15.758H25.1517V12.6121C25.1517 11.9521 24.9524 11.4287 24.548 11.0541ZM21.9867 14.8184C21.7932 14.6756 21.6759 14.4437 21.6759 14.194C21.6759 13.9145 21.8049 13.6825 22.057 13.4982C22.315 13.3138 22.6374 13.2187 23.0185 13.2187C23.5461 13.2127 23.9565 13.3317 24.2496 13.5695C24.2496 13.9739 24.0913 14.3248 23.7806 14.6221C23.4992 14.9076 23.1181 15.0681 22.7195 15.0681C22.4557 15.0741 22.1977 14.9849 21.9867 14.8184ZM27.1798 17.9999L30.3333 10.6557H29.3076L27.848 14.3189H27.8305L26.3358 10.6557H25.31L27.3791 15.4309L26.2068 17.9999H27.1798Z" fill="#3C4043"/>
<path d="M13.6054 12.0828C13.6054 11.7914 13.5819 11.5 13.5351 11.2146H9.55505V12.8619H11.8352C11.7414 13.3911 11.4366 13.8669 10.9911 14.1642V15.2346H12.351C13.1482 14.4913 13.6054 13.3911 13.6054 12.0828Z" fill="#4285F4"/>
<path d="M9.55524 16.2694C10.6924 16.2694 11.6537 15.8888 12.3512 15.2346L10.9913 14.1642C10.6103 14.4259 10.1238 14.5745 9.55524 14.5745C8.45326 14.5745 7.52128 13.8193 7.18717 12.8083H5.78625V13.9144C6.50137 15.3595 7.96089 16.2694 9.55524 16.2694Z" fill="#34A853"/>
<path d="M7.18733 12.8084C7.01145 12.2791 7.01145 11.7023 7.18733 11.167V10.0669H5.78619C5.18235 11.2741 5.18235 12.7013 5.78619 13.9085L7.18733 12.8084Z" fill="#FBBC04"/>
<path d="M9.55524 9.4009C10.159 9.389 10.7393 9.62093 11.173 10.0431L12.3805 8.81811C11.6126 8.09261 10.6045 7.69418 9.55524 7.70607C7.96089 7.70607 6.50137 8.62187 5.78625 10.0669L7.18717 11.173C7.52128 10.1561 8.45326 9.4009 9.55524 9.4009Z" fill="#EA4335"/>
</svg>
