<svg width="36" height="24" viewBox="0 0 36 24" fill="none" xmlns="http://www.w3.org/2000/svg">
<rect x="0.833313" y="0.5" width="34" height="23" rx="3.5" fill="white" stroke="#D9D9D9"/>
<path fill-rule="evenodd" clip-rule="evenodd" d="M18.0833 17.1569C16.8917 18.1852 15.3461 18.806 13.6571 18.806C9.88842 18.806 6.83331 15.7154 6.83331 11.903C6.83331 8.09057 9.88842 5 13.6571 5C15.3461 5 16.8917 5.62075 18.0833 6.64903C19.2749 5.62075 20.8206 5 22.5095 5C26.2782 5 29.3333 8.09057 29.3333 11.903C29.3333 15.7154 26.2782 18.806 22.5095 18.806C20.8206 18.806 19.2749 18.1852 18.0833 17.1569Z" fill="#ED0006"/>
<path fill-rule="evenodd" clip-rule="evenodd" d="M18.0833 17.1569C19.5505 15.8908 20.4809 14.0068 20.4809 11.903C20.4809 9.79917 19.5505 7.91517 18.0833 6.64903C19.2749 5.62075 20.8206 5 22.5095 5C26.2782 5 29.3333 8.09057 29.3333 11.903C29.3333 15.7154 26.2782 18.806 22.5095 18.806C20.8206 18.806 19.2749 18.1852 18.0833 17.1569Z" fill="#F9A000"/>
<path fill-rule="evenodd" clip-rule="evenodd" d="M18.0834 6.64917C19.5505 7.9153 20.4809 9.79929 20.4809 11.9031C20.4809 14.0069 19.5505 15.8909 18.0834 17.157C16.6162 15.8909 15.6859 14.0069 15.6859 11.9031C15.6859 9.79929 16.6162 7.9153 18.0834 6.64917Z" fill="#FF5E00"/>
</svg>
