<svg width="36" height="24" viewBox="0 0 36 24" fill="none" xmlns="http://www.w3.org/2000/svg">
<rect x="0.833313" y="0.5" width="34" height="23" rx="3.5" fill="white" stroke="#D9D9D9"/>
<path fill-rule="evenodd" clip-rule="evenodd" d="M10.9586 16.2582H8.83825L7.24827 10.1924C7.1728 9.91334 7.01256 9.66667 6.77685 9.5504C6.18862 9.25823 5.54043 9.0257 4.83331 8.90843V8.6749H8.24898C8.7204 8.6749 9.07396 9.0257 9.13288 9.43313L9.95785 13.8086L12.0771 8.6749H14.1385L10.9586 16.2582ZM15.3171 16.2582H13.3146L14.9635 8.6749H16.966L15.3171 16.2582ZM19.5567 10.7757C19.6156 10.3673 19.9692 10.1337 20.3817 10.1337C21.0298 10.0751 21.7359 10.1924 22.3252 10.4835L22.6788 8.85081C22.0895 8.61727 21.4413 8.5 20.8531 8.5C18.9095 8.5 17.4953 9.55041 17.4953 11.0082C17.4953 12.1173 18.497 12.6996 19.2042 13.0504C19.9692 13.4002 20.2638 13.6338 20.2049 13.9835C20.2049 14.5082 19.6156 14.7418 19.0274 14.7418C18.3203 14.7418 17.6131 14.5669 16.966 14.2747L16.6124 15.9085C17.3195 16.1996 18.0846 16.3169 18.7917 16.3169C20.9709 16.3745 22.3252 15.3251 22.3252 13.75C22.3252 11.7665 19.5567 11.6502 19.5567 10.7757ZM29.3333 16.2582L27.7433 8.6749H26.0355C25.6819 8.6749 25.3284 8.90843 25.2105 9.25823L22.2663 16.2582H24.3277L24.7391 15.1502H27.2719L27.5076 16.2582H29.3333ZM26.3301 10.7171L26.9184 13.5751H25.2694L26.3301 10.7171Z" fill="#172B85"/>
</svg>
